<svg version="1" xmlns="http://www.w3.org/2000/svg" width="736" height="736" viewBox="0 0 552.000000 552.000000"><path d="M263.5.7c-16.7 1.4-41.3 6.8-58.5 12.8-22.9 8-51.3 23.9-70.7 39.6-10 8.1-27.1 25.2-35.2 35.2C83.7 107.4 67.5 136 60 157.5c-3.6 10.3-9.2 29.7-8.7 30.2.2.1 3.2.6 6.6 1l6.3.6-.6 6.7-.7 6.7 8.8.6c4.8.3 9.1.3 9.5 0 .5-.2.8-3.1.8-6.4V191h4.9c7.8 0 7.8 0 6.7 8.5l-.9 7.5h-7.4l-.6 11.2c-.4 6.2-.7 16.4-.7 22.7v11.4l-6.1-.7c-3.4-.3-9.6-.6-13.8-.6h-7.6l.7-17.6c.3-9.7.8-20.1 1-23.2l.3-5.7-11.5-1.1c-7.5-.8-11.7-.8-12.1-.2-1.8 2.8-4.9 38.5-4.9 56.4v10.1l3.7.7c2.1.3 6.1.6 8.8.6h5l2.7 13.8c5 25.7 15.6 53.4 29.2 76.7 10.4 17.5 22.5 32.3 47.3 57.6 22.5 22.8 26.5 26.4 89.5 78.4 41.5 34.4 66.3 54.3 67.1 53.8.7-.4 29.8-25 64.7-54.8 63.6-54.2 109-95.5 121.5-110.7 28.7-34.6 45.9-72.3 51.9-113.9 2.2-14.5 2.2-52.3.1-66.8-3.8-25.5-10.7-47.6-22.5-71.6-12.9-26.4-26.5-45-48.2-66-38.3-37.3-85.6-59.8-138.4-66C300.9.2 274.6-.3 263.5.7zm141.3 156.8c1.8 1.1 4.3 3.6 5.5 5.5 2 3.2 2.2 5.1 2.5 22.1l.4 18.7 7.4.4c6 .3 7.8.8 9.6 2.6 2.2 2.1 2.3 3.1 2.6 20.4.2 12.7 0 19-.9 21.1-1.6 3.7-6.1 5.7-13.4 5.7H413v17.7c0 20.7-1 24.3-7.6 28.4l-3.9 2.4H281.8c-119.3 0-119.7 0-122.4-2.1-1.5-1.1-3.7-3.3-4.8-4.8-2.1-2.7-2.1-3.9-2.4-65.2-.3-69.2-.5-66.9 6.2-71.7l3.1-2.2 81-.5c44.6-.3 98.6-.6 120-.5 37.2 0 39.2.1 42.3 2z"/><path d="M170 229v56h225V173H170v56z"/></svg>