<?xml version="1.0" standalone="no"?>
<!DOCTYPE svg PUBLIC "-//W3C//DTD SVG 20010904//EN"
 "http://www.w3.org/TR/2001/REC-SVG-20010904/DTD/svg10.dtd">
<svg version="1.0" xmlns="http://www.w3.org/2000/svg"
 width="1160.000000pt" height="1160.000000pt" viewBox="0 0 1160.000000 1160.000000"
 preserveAspectRatio="xMidYMid meet">
<metadata>
Created by potrace 1.11, written by Peter Selinger 2001-2013
</metadata>
<g transform="translate(0.000000,1160.000000) scale(0.100000,-0.100000)"
fill="#000000" stroke="none">
<path d="M5998 11595 c-2 -1 -55 -6 -118 -9 -63 -4 -133 -8 -155 -10 -64 -6
-158 -17 -185 -21 -14 -2 -52 -6 -85 -10 -32 -4 -62 -8 -65 -10 -3 -1 -27 -6
-54 -9 -28 -4 -106 -18 -175 -32 -546 -108 -979 -253 -1436 -479 -115 -57
-232 -117 -260 -133 -27 -16 -90 -53 -140 -82 -100 -58 -328 -209 -420 -278
-73 -55 -238 -184 -245 -192 -3 -3 -39 -34 -80 -69 -89 -75 -273 -253 -385
-371 -238 -251 -480 -569 -506 -663 -6 -23 -11 -70 -11 -105 1 -52 -4 -72 -27
-110 -49 -84 -162 -295 -166 -312 -1 -3 -14 -32 -29 -65 -62 -134 -74 -163
-96 -220 -30 -79 -35 -83 -62 -57 -13 11 -41 25 -63 29 -32 7 -321 10 -403 4
-36 -2 -102 -54 -113 -89 -8 -23 -11 -169 -11 -448 0 -380 -1 -414 -16 -415
-9 0 -39 0 -67 1 -27 0 -54 1 -60 1 -164 -5 -204 -5 -227 0 -14 4 -29 5 -32 2
-3 -3 -41 -6 -84 -7 -89 -2 -133 -21 -169 -75 -21 -31 -22 -42 -23 -277 -1
-232 1 -247 21 -283 24 -43 63 -69 108 -73 17 -1 31 -5 31 -8 0 -3 20 -5 44
-5 24 0 42 3 40 7 -2 3 5 4 16 1 11 -3 21 -8 21 -12 1 -3 2 -314 4 -691 1
-377 5 -696 8 -709 20 -78 56 -146 110 -205 13 -15 14 -22 5 -29 -9 -6 -8 -7
4 -3 10 3 29 -5 45 -18 16 -13 46 -34 68 -46 43 -24 59 -25 588 -30 l147 -1 0
-25 c0 -33 -1 -29 16 -76 16 -45 157 -331 192 -388 12 -19 25 -42 29 -50 27
-61 219 -351 327 -495 201 -268 521 -607 746 -791 19 -16 41 -35 49 -42 30
-29 272 -213 366 -278 231 -161 521 -330 765 -447 198 -94 324 -146 575 -237
47 -17 68 -32 97 -68 21 -26 52 -63 70 -83 18 -19 60 -67 93 -105 33 -38 72
-82 86 -99 44 -50 121 -138 174 -200 28 -32 66 -77 86 -99 20 -23 114 -131
209 -241 95 -110 176 -202 179 -205 4 -3 29 -32 56 -65 28 -33 59 -69 70 -80
11 -12 39 -44 62 -71 40 -47 60 -71 106 -124 12 -14 67 -77 121 -140 55 -63
107 -122 115 -131 9 -9 36 -40 61 -70 25 -29 75 -87 111 -129 36 -41 76 -88
90 -104 13 -16 37 -42 52 -59 16 -17 37 -42 49 -56 l20 -26 26 30 c15 17 50
57 77 89 28 32 57 66 66 75 8 9 69 79 135 156 65 76 126 146 134 155 8 9 40
45 70 80 30 35 60 68 65 74 6 6 53 61 105 121 51 61 103 121 116 135 12 14 46
52 75 85 56 63 349 402 384 444 11 13 29 34 40 45 11 12 47 53 80 91 32 39 66
77 75 86 8 9 31 36 52 60 20 24 46 55 58 69 12 14 43 49 68 79 26 30 58 66 72
82 14 15 46 51 71 81 25 29 57 65 70 80 17 20 74 46 199 94 470 179 862 385
1236 652 111 78 321 240 360 277 6 5 46 41 90 80 245 217 502 499 706 775 76
103 238 344 238 353 0 2 25 46 56 97 193 321 380 780 483 1185 47 187 95 453
107 587 3 32 9 88 13 125 9 67 7 725 -2 773 -2 14 -7 57 -11 95 -57 582 -285
1274 -591 1790 -25 42 -45 78 -45 80 0 2 -13 23 -28 47 -16 24 -55 84 -88 133
-55 84 -190 274 -203 285 -3 3 -25 30 -48 60 -23 30 -50 64 -60 75 -10 11 -47
54 -82 95 -64 74 -359 372 -436 440 -549 487 -1195 857 -1910 1095 -181 60
-455 136 -575 159 -14 3 -36 7 -50 10 -146 32 -384 72 -485 81 -33 4 -67 8
-75 10 -8 2 -55 7 -105 10 -49 4 -106 9 -125 11 -40 5 -667 14 -672 9z"/>
</g>
</svg>
